<svg xmlns="http://www.w3.org/2000/svg" xmlns:xlink="http://www.w3.org/1999/xlink" version="1.1" x="0px" y="0px" enable-background="new 0 0 100 100" xml:space="preserve" style="display: none;">
  <defs>
    <symbol id="basketball" viewBox="0 0 100 100">
      <title>Basketball</title>
      <path d="M28.1,36.6c4.6,1.9,12.2,1.6,20.9,1.1c8.9-0.4,19-0.9,28.9,0.9c6.3,1.2,11.9,3.1,16.8,6c-1.5-12.2-7.9-23.7-18.6-31.3   c-4.9-0.2-9.9,0.3-14.8,1.4C47.8,17.9,36.2,25.6,28.1,36.6z" class="partI"/>
      <path d="M70.3,9.8C57.5,3.4,42.8,3.6,30.5,9.5c-3,6-8.4,19.6-5.3,24.9c8.6-11.7,20.9-19.8,35.2-23.1C63.7,10.5,67,10,70.3,9.8z" class="partJ"/>
      <path d="M16.5,51.3c0.6-1.7,1.2-3.4,2-5.1c-3.8-3.4-7.5-7-11-10.8c-2.1,6.1-2.8,12.5-2.3,18.7C9.6,51.1,13.4,50.2,16.5,51.3z" class="partK"/>
      <path d="M9,31.6c3.5,3.9,7.2,7.6,11.1,11.1c0.8-1.6,1.7-3.1,2.6-4.6c0.1-0.2,0.3-0.4,0.4-0.6c-2.9-3.3-3.1-9.2-0.6-17.6   c0.8-2.7,1.8-5.3,2.7-7.4c-5.2,3.4-9.8,8-13.3,13.7C10.8,27.9,9.8,29.7,9,31.6z" class="partL"/>
      <path d="M15.4,54.7c-2.6-1-6.1,0.7-9.7,3.4c1.2,6.6,3.9,13,8,18.5C13,69.3,13.5,61.8,15.4,54.7z" class="partM"/>
      <path d="M39.8,57.6C54.3,66.7,70,73,86.5,76.4c0.6-0.8,1.1-1.6,1.7-2.5c4.8-7.7,7-16.3,6.8-24.8c-13.8-9.3-31.3-8.4-45.8-7.7   c-9.5,0.5-17.8,0.9-23.2-1.7c-0.1,0.1-0.2,0.3-0.3,0.4c-1,1.7-2,3.4-2.9,5.1C28.2,49.7,33.8,53.9,39.8,57.6z" class="partN"/>
      <path d="M26.2,88.2c3.3,2,6.7,3.6,10.2,4.7c-3.5-6.2-6.3-12.6-8.8-18.5c-3.1-7.2-5.8-13.5-9-17.2c-1.9,8-2,16.4-0.3,24.7   C20.6,84.2,23.2,86.3,26.2,88.2z" class="partO"/>
      <path d="M30.9,73c2.9,6.8,6.1,14.4,10.5,21.2c15.6,3,32-2.3,42.6-14.6C67.7,76,52.2,69.6,37.9,60.7C32,57,26.5,53,21.3,48.6   c-0.6,1.5-1.2,3-1.7,4.6C24.1,57.1,27.3,64.5,30.9,73z" class="partP"/>
    </symbol>
        <symbol id="basketball2" viewBox="0 0 100 100">
      <title>Basketball</title>
      <path d="M28.1,36.6c4.6,1.9,12.2,1.6,20.9,1.1c8.9-0.4,19-0.9,28.9,0.9c6.3,1.2,11.9,3.1,16.8,6c-1.5-12.2-7.9-23.7-18.6-31.3   c-4.9-0.2-9.9,0.3-14.8,1.4C47.8,17.9,36.2,25.6,28.1,36.6z" class="partA"/>
      <path d="M70.3,9.8C57.5,3.4,42.8,3.6,30.5,9.5c-3,6-8.4,19.6-5.3,24.9c8.6-11.7,20.9-19.8,35.2-23.1C63.7,10.5,67,10,70.3,9.8z" class="partB"/>
      <path d="M16.5,51.3c0.6-1.7,1.2-3.4,2-5.1c-3.8-3.4-7.5-7-11-10.8c-2.1,6.1-2.8,12.5-2.3,18.7C9.6,51.1,13.4,50.2,16.5,51.3z" class="partC"/>
      <path d="M9,31.6c3.5,3.9,7.2,7.6,11.1,11.1c0.8-1.6,1.7-3.1,2.6-4.6c0.1-0.2,0.3-0.4,0.4-0.6c-2.9-3.3-3.1-9.2-0.6-17.6   c0.8-2.7,1.8-5.3,2.7-7.4c-5.2,3.4-9.8,8-13.3,13.7C10.8,27.9,9.8,29.7,9,31.6z" class="partD"/>
      <path d="M15.4,54.7c-2.6-1-6.1,0.7-9.7,3.4c1.2,6.6,3.9,13,8,18.5C13,69.3,13.5,61.8,15.4,54.7z" class="partE"/>
      <path d="M39.8,57.6C54.3,66.7,70,73,86.5,76.4c0.6-0.8,1.1-1.6,1.7-2.5c4.8-7.7,7-16.3,6.8-24.8c-13.8-9.3-31.3-8.4-45.8-7.7   c-9.5,0.5-17.8,0.9-23.2-1.7c-0.1,0.1-0.2,0.3-0.3,0.4c-1,1.7-2,3.4-2.9,5.1C28.2,49.7,33.8,53.9,39.8,57.6z" class="partF"/>
      <path d="M26.2,88.2c3.3,2,6.7,3.6,10.2,4.7c-3.5-6.2-6.3-12.6-8.8-18.5c-3.1-7.2-5.8-13.5-9-17.2c-1.9,8-2,16.4-0.3,24.7   C20.6,84.2,23.2,86.3,26.2,88.2z" class="partG"/>
      <path d="M30.9,73c2.9,6.8,6.1,14.4,10.5,21.2c15.6,3,32-2.3,42.6-14.6C67.7,76,52.2,69.6,37.9,60.7C32,57,26.5,53,21.3,48.6   c-0.6,1.5-1.2,3-1.7,4.6C24.1,57.1,27.3,64.5,30.9,73z" class="partH"/>
    </symbol>
    <symbol id="health" viewBox="0 0 16 16">
<path d="M8 0c-4.418 0-8 3.582-8 8s3.582 8 8 8 8-3.582 8-8-3.582-8-8-8zM5 8c0-1.657 1.343-3 3-3s3 1.343 3 3-1.343 3-3 3-3-1.343-3-3zM14.468 10.679v0l-2.772-1.148c0.196-0.472 0.304-0.989 0.304-1.531s-0.108-1.059-0.304-1.531l2.772-1.148c0.342 0.825 0.532 1.73 0.532 2.679s-0.189 1.854-0.532 2.679v0zM10.679 1.532v0 0l-1.148 2.772c-0.472-0.196-0.989-0.304-1.531-0.304s-1.059 0.108-1.531 0.304l-1.148-2.772c0.825-0.342 1.73-0.532 2.679-0.532s1.854 0.189 2.679 0.532zM1.532 5.321l2.772 1.148c-0.196 0.472-0.304 0.989-0.304 1.531s0.108 1.059 0.304 1.531l-2.772 1.148c-0.342-0.825-0.532-1.73-0.532-2.679s0.189-1.854 0.532-2.679zM5.321 14.468l1.148-2.772c0.472 0.196 0.989 0.304 1.531 0.304s1.059-0.108 1.531-0.304l1.148 2.772c-0.825 0.342-1.73 0.532-2.679 0.532s-1.854-0.189-2.679-0.532z"></path>
    </symbol>
        <symbol id="phone" viewBox="0 0 16 16">
<path d="M11 10c-1 1-1 2-2 2s-2-1-3-2-2-2-2-3 1-1 2-2-2-4-3-4-3 3-3 3c0 2 2.055 6.055 4 8s6 4 8 4c0 0 3-2 3-3s-3-4-4-3z"></path>
    </symbol>

    <!-- ICOMOON FREEBIES -->

    <symbol id="icon-spinner11" viewBox="0 0 32 32">
<title>spinner11</title>
<path class="path1" d="M32 12h-12l4.485-4.485c-2.267-2.266-5.28-3.515-8.485-3.515s-6.219 1.248-8.485 3.515c-2.266 2.267-3.515 5.28-3.515 8.485s1.248 6.219 3.515 8.485c2.267 2.266 5.28 3.515 8.485 3.515s6.219-1.248 8.485-3.515c0.189-0.189 0.371-0.384 0.546-0.583l3.010 2.634c-2.933 3.349-7.239 5.464-12.041 5.464-8.837 0-16-7.163-16-16s7.163-16 16-16c4.418 0 8.418 1.791 11.313 4.687l4.687-4.687v12z"></path>
</symbol>

<symbol id="icon-search" viewBox="0 0 32 32">
<title>search</title>
<path class="path1" d="M31.008 27.231l-7.58-6.447c-0.784-0.705-1.622-1.029-2.299-0.998 1.789-2.096 2.87-4.815 2.87-7.787 0-6.627-5.373-12-12-12s-12 5.373-12 12 5.373 12 12 12c2.972 0 5.691-1.081 7.787-2.87-0.031 0.677 0.293 1.515 0.998 2.299l6.447 7.58c1.104 1.226 2.907 1.33 4.007 0.23s0.997-2.903-0.23-4.007zM12 20c-4.418 0-8-3.582-8-8s3.582-8 8-8 8 3.582 8 8-3.582 8-8 8z"></path>
</symbol>
<symbol id="icon-zoom-out" viewBox="0 0 32 32">
<title>zoom-out</title>
<path class="path1" d="M31.008 27.231l-7.58-6.447c-0.784-0.705-1.622-1.029-2.299-0.998 1.789-2.096 2.87-4.815 2.87-7.787 0-6.627-5.373-12-12-12s-12 5.373-12 12 5.373 12 12 12c2.972 0 5.691-1.081 7.787-2.87-0.031 0.677 0.293 1.515 0.998 2.299l6.447 7.58c1.104 1.226 2.907 1.33 4.007 0.23s0.997-2.903-0.23-4.007zM12 20c-4.418 0-8-3.582-8-8s3.582-8 8-8 8 3.582 8 8-3.582 8-8 8zM6 10h12v4h-12z"></path>
</symbol>
<symbol id="icon-binoculars" viewBox="0 0 32 32">
<title>binoculars</title>
<path class="path1" d="M2 0h12v2h-12zM18 0h12v2h-12zM29.75 10h-1.75v-8h-8v8h-8v-8h-8v8h-1.75c-1.238 0-2.25 1.012-2.25 2.25v17.5c0 1.238 1.012 2.25 2.25 2.25h9.5c1.238 0 2.25-1.012 2.25-2.25v-11.75h4v11.75c0 1.238 1.012 2.25 2.25 2.25h9.5c1.238 0 2.25-1.012 2.25-2.25v-17.5c0-1.238-1.012-2.25-2.25-2.25zM10.875 30h-7.75c-0.619 0-1.125-0.45-1.125-1s0.506-1 1.125-1h7.75c0.619 0 1.125 0.45 1.125 1s-0.506 1-1.125 1zM17 16h-2c-0.55 0-1-0.45-1-1s0.45-1 1-1h2c0.55 0 1 0.45 1 1s-0.45 1-1 1zM28.875 30h-7.75c-0.619 0-1.125-0.45-1.125-1s0.506-1 1.125-1h7.75c0.619 0 1.125 0.45 1.125 1s-0.506 1-1.125 1z"></path>
</symbol>
<symbol id="icon-zoom-in" viewBox="0 0 32 32">
<title>zoom-in</title>
<path class="path1" d="M31.008 27.231l-7.58-6.447c-0.784-0.705-1.622-1.029-2.299-0.998 1.789-2.096 2.87-4.815 2.87-7.787 0-6.627-5.373-12-12-12s-12 5.373-12 12 5.373 12 12 12c2.972 0 5.691-1.081 7.787-2.87-0.031 0.677 0.293 1.515 0.998 2.299l6.447 7.58c1.104 1.226 2.907 1.33 4.007 0.23s0.997-2.903-0.23-4.007zM12 20c-4.418 0-8-3.582-8-8s3.582-8 8-8 8 3.582 8 8-3.582 8-8 8zM14 6h-4v4h-4v4h4v4h4v-4h4v-4h-4z"></path>
</symbol>
  </defs>
</svg>
